<svg width="230" height="381" viewBox="0 0 230 381" fill="none" xmlns="http://www.w3.org/2000/svg">
<path d="M0 136.67L0.686844 136.784L6.54355 135.444L0 136.67ZM0 61.6739V136.67L5.85217 135.324L0 61.6739ZM5.85217 135.324L0 136.67L6.54355 135.444L5.85217 135.324ZM5.85217 91.9278V58.4192L0 61.6739L5.85217 91.9278ZM0 61.6739L5.85217 135.324V100.717L0 61.6739ZM5.85217 91.9278L0 61.6739L5.85217 100.717V91.9278ZM5.85217 91.9278L6.54355 92.143V58.7083L5.85217 91.9278ZM5.85217 135.324L6.54355 135.444V100.913L5.85217 135.324ZM5.85217 58.4192V91.9278L6.54355 58.7083L5.85217 58.4192ZM5.85217 100.717V135.324L6.54355 100.913L5.85217 100.717ZM18.1028 137.021L4.97374 139.802L0.158642 272.108L18.1028 137.021ZM5.85217 100.717L6.54355 100.913L19.1229 96.1974L5.85217 100.717ZM13.3594 255.486L18.1028 137.021L0.158642 272.108L13.3594 255.486ZM23.7127 87.4872L5.85217 91.9278V100.717L23.7127 87.4872ZM18.424 95.9801L5.85217 100.717L19.1229 96.1974L18.424 95.9801ZM13.3594 255.486L14.0557 255.336L18.8016 137.142L13.3594 255.486ZM23.7127 87.4872L17.3926 87.1495L5.85217 91.9278L23.7127 87.4872ZM5.85217 100.717L18.424 95.9801L23.7127 87.4872L5.85217 100.717ZM18.1028 137.021L13.3594 255.486L18.8016 137.142L18.1028 137.021ZM18.424 95.9801L33.406 128.986L23.7127 87.4872L18.424 95.9801ZM23.7127 87.4872L41.0222 38.8595L17.3926 87.1495L23.7127 87.4872ZM23.7127 87.4872L24.4139 87.7292L41.7274 39.2411L23.7127 87.4872ZM23.7127 87.4872L42.3495 126.929L24.4139 87.7292L23.7127 87.4872ZM41.0222 38.8595L31.9996 43.8774L17.3926 87.1495L41.0222 38.8595ZM13.3594 255.486L0.158642 272.108L85.8171 302.831L13.3594 255.486ZM33.406 128.986L42.3495 126.929L23.7127 87.4872L33.406 128.986ZM41.0222 38.8595L23.7127 87.4872L41.7274 39.2411L41.0222 38.8595ZM42.3495 126.929L43.0547 127.088L24.4139 87.7292L42.3495 126.929ZM33.406 128.986L34.1101 129.135L43.0547 127.088L33.406 128.986ZM13.3594 255.486L85.8171 275.115L14.0557 255.336L13.3594 255.486ZM42.3495 126.929L33.406 128.986L43.0547 127.088L42.3495 126.929ZM44.6704 126.395L45.3757 126.557L53.9552 124.594L44.6704 126.395ZM53.2506 124.421L44.6704 126.395L53.9552 124.594L53.2506 124.421ZM44.6704 126.395L53.2506 124.421L69.4155 34.2269L44.6704 126.395ZM53.2506 124.421L53.9552 124.594L70.115 34.6613L53.2506 124.421ZM62.1794 27.093L44.6704 126.395L69.4155 34.2269L62.1794 27.093ZM85.8171 275.115L86.5063 274.863L14.0557 255.336L85.8171 275.115ZM85.8171 275.115L13.3594 255.486L85.8171 302.831V275.115ZM69.4155 34.2269L53.2506 124.421L70.115 34.6613L69.4155 34.2269ZM62.1794 27.093L69.4155 34.2269L98.8018 18.979L62.1794 27.093ZM69.4155 34.2269L70.115 34.6613L99.4795 19.5027L69.4155 34.2269ZM98.8018 18.979L69.4155 34.2269L99.4795 19.5027L98.8018 18.979ZM98.8018 18.979L110.895 0L62.1794 27.093L98.8018 18.979ZM111.216 117.296L85.8171 122.677V275.115L111.216 117.296ZM85.8171 302.831V365.192L111.216 117.296L85.8171 302.831ZM85.8171 302.831L111.216 117.296L85.8171 275.115V302.831ZM98.8018 113.943L99.4795 114.175L111.559 111.411L98.8018 113.943ZM85.8171 365.192L111.216 379.318V117.296L85.8171 365.192ZM98.8018 18.979V113.943L110.895 0L98.8018 18.979ZM110.895 111.161L98.8018 113.943L111.559 111.411L110.895 111.161ZM98.8018 113.943L110.895 111.161V0L98.8018 113.943ZM110.895 111.161L111.559 111.411V0.603363L110.895 111.161ZM111.216 379.318L111.88 378.713V117.527L111.216 379.318ZM110.895 0V111.161L111.559 0.603363L110.895 0ZM111.216 117.296V379.318L111.88 117.527L111.216 117.296Z" fill="white"/>
<path d="M224.354 136.032L229.532 128.663V100.832L224.354 136.032ZM223.69 127.098L224.354 136.032L229.532 100.832L223.69 127.098ZM229.461 298.063V241.077L218.212 227.695L229.461 298.063ZM223.69 98.5589V127.098L229.532 100.832L223.69 98.5589ZM223.69 98.5589L222.999 98.7608V127.237L223.69 98.5589ZM223.69 127.098V98.5589L222.999 127.237L223.69 127.098ZM218.212 227.695L226.642 215.41V161.552L218.212 227.695ZM216.203 304.283L229.461 298.063L218.212 227.695L216.203 304.283ZM218.212 227.695L226.642 161.552L213.046 159.876L218.212 227.695ZM226.972 69.5299L197.016 53.9652L226.283 69.7921L226.972 69.5299ZM229.532 100.832L224.354 90.0608L197.016 78.4034L229.532 100.832ZM216.203 240.275V304.283L218.212 227.695L216.203 240.275ZM229.532 100.832L197.016 78.4034L223.69 98.5589L229.532 100.832ZM216.203 240.275L215.507 240.161V304.024L216.203 240.275ZM216.203 304.283V240.275L215.507 304.024L216.203 304.283ZM218.212 227.695L213.046 159.876L216.203 240.275L218.212 227.695ZM223.69 127.098L197.016 119.948L224.354 136.032L223.69 127.098ZM223.69 98.5589L197.016 88.1787L222.999 98.7608L223.69 98.5589ZM226.972 69.5299V60.8711L189.377 39.9356L226.972 69.5299ZM213.046 159.876V219.312L216.203 240.275L213.046 159.876ZM213.046 159.876L212.348 159.946V219.245L213.046 159.876ZM213.046 219.312V159.876L212.348 219.245L213.046 219.312ZM224.354 136.032L189.377 127.961L223.663 136.151L224.354 136.032ZM197.016 53.9652L196.313 54.2992L226.283 69.7921L197.016 53.9652ZM197.016 88.1787L196.313 88.4289L222.999 98.7608L197.016 88.1787ZM197.016 78.4034V88.1787L223.69 98.5589L197.016 78.4034ZM197.016 53.9652L226.972 69.5299L189.377 39.9356L197.016 53.9652ZM197.016 119.948L189.377 127.961L224.354 136.032L197.016 119.948ZM189.377 127.961L188.672 128.118L223.663 136.151L189.377 127.961ZM197.016 119.948V88.1787L189.377 127.961L197.016 119.948ZM197.016 78.4034V53.9652L189.377 39.9356L197.016 78.4034ZM197.016 78.4034L189.377 39.9356L197.016 88.1787V78.4034ZM197.016 88.1787L189.377 39.9356V127.961L197.016 88.1787ZM189.377 39.9356L188.672 40.3147V128.118L189.377 39.9356ZM189.377 127.961V39.9356L188.672 128.118L189.377 127.961ZM117.663 380.493L217.751 324.757L229.461 298.063L117.663 380.493ZM213.046 219.312L135.181 228.502L216.203 240.275L213.046 219.312ZM216.203 304.283L117.663 380.493L229.461 298.063L216.203 304.283ZM213.046 219.312L212.348 219.245L134.499 228.386L213.046 219.312ZM226.642 161.552L214.635 138.598L120.713 118.771L226.642 161.552ZM226.642 161.552L120.713 118.771L213.046 159.876L226.642 161.552ZM216.203 304.283L215.507 304.024L117 349.997L216.203 304.283ZM213.046 159.876L120.713 148.488L212.348 159.946L213.046 159.876ZM183.065 36.4204L174.48 31.64L161.355 79.853L183.065 36.4204ZM174.48 31.64L173.776 32.062L160.655 80.1602L174.48 31.64ZM160.929 121.396L183.065 36.4204L161.355 79.853L160.929 121.396ZM161.355 79.853L174.48 31.64L160.655 80.1602L161.355 79.853ZM135.181 228.502V256.949L216.203 240.275L135.181 228.502ZM135.181 228.502L213.046 219.312L134.499 228.386L135.181 228.502ZM158.778 90.0988L160.929 121.396L161.355 79.853L158.778 90.0988ZM158.778 90.0988L154.049 108.432L160.929 121.396L158.778 90.0988ZM158.778 90.0988L158.079 90.3799L153.352 108.665L158.778 90.0988ZM154.049 108.432L158.778 90.0988L153.352 108.665L154.049 108.432ZM161.355 79.853L146.727 74.4331L158.778 90.0988L161.355 79.853ZM158.778 90.0988L139.046 83.5229L158.079 90.3799L158.778 90.0988ZM120.713 148.488L120.046 148.62L212.348 159.946L120.713 148.488ZM120.713 118.771V148.488L213.046 159.876L120.713 118.771ZM117.663 350.509L216.203 304.283L117 349.997L117.663 350.509ZM216.203 304.283L117.663 350.509V380.493L216.203 304.283ZM146.727 74.4331L139.046 83.5229L158.778 90.0988L146.727 74.4331ZM160.929 121.396L121.81 112.369L160.229 121.588L160.929 121.396ZM139.046 83.5229L138.36 83.8421L158.079 90.3799L139.046 83.5229ZM154.049 108.432L121.81 99.7912L160.929 121.396L154.049 108.432ZM146.727 74.4331L129.94 6.83676L139.046 83.5229L146.727 74.4331ZM135.181 228.502L134.499 228.386V256.747L135.181 228.502ZM135.181 256.949V228.502L134.499 256.747L135.181 256.949ZM121.81 112.369L121.142 112.615L160.229 121.588L121.81 112.369ZM121.81 99.7912V112.369L160.929 121.396L121.81 99.7912ZM139.046 83.5229L117.663 0L138.36 83.8421L139.046 83.5229ZM129.94 6.83676L117.663 0L139.046 83.5229L129.94 6.83676ZM117.663 0L117 0.606888L138.36 83.8421L117.663 0ZM121.81 99.7912L121.142 100.076V112.615L121.81 99.7912ZM121.81 112.369V99.7912L121.142 112.615L121.81 112.369ZM120.713 118.771L120.046 118.997V148.62L120.713 118.771ZM120.713 148.488V118.771L120.046 148.62L120.713 148.488ZM117.663 350.509L117 349.997V379.886L117.663 350.509ZM117.663 380.493V350.509L117 379.886L117.663 380.493Z" fill="white"/>
</svg>
